HIERARCHY
ROOT Hips
{
	OFFSET 0.00000 0.00000 0.00000
	CHANNELS 6 Xposition Yposition Zposition Zrotation Yrotation Xrotation 
	JOINT LHipJoint
	{
		OFFSET 0 0 0
		CHANNELS 3 Zrotation Yrotation Xrotation
		JOINT LeftHip
		{
			OFFSET 3.13874 -1.57224 1.49786
			CHANNELS 3 Zrotation Yrotation Xrotation
			JOINT LeftKnee
			{
				OFFSET 2.10955 -5.79594 0.00000
				CHANNELS 3 Zrotation Yrotation Xrotation
				JOINT LeftAnkle
				{
					OFFSET 2.41843 -6.64458 0.00000
					CHANNELS 3 Zrotation Yrotation Xrotation
					JOINT LeftToe
					{
						OFFSET 0.04713 -0.12948 1.66229
						CHANNELS 3 Zrotation Yrotation Xrotation
						End Site
						{
							OFFSET 0.00000 -0.00000 0.85167
						}
					}
				}
			}
		}
	}
	JOINT RHipJoint
	{
		OFFSET 0 0 0
		CHANNELS 3 Zrotation Yrotation Xrotation
		JOINT RightHip
		{
			OFFSET -3.13988 -1.57224 1.49786
			CHANNELS 3 Zrotation Yrotation Xrotation
			JOINT RightKnee
			{
				OFFSET -2.15006 -5.90725 0.00000
				CHANNELS 3 Zrotation Yrotation Xrotation
				JOINT RightAnkle
				{
					OFFSET -2.34496 -6.44273 0.00000
					CHANNELS 3 Zrotation Yrotation Xrotation
					JOINT RightToe
					{
						OFFSET -0.08699 -0.23900 1.55223
						CHANNELS 3 Zrotation Yrotation Xrotation
						End Site
						{
							OFFSET -0.00000 -0.00000 0.80281
						}
					}
				}
			}
		}
	}
	JOINT lowerback
	{
		OFFSET 0 0 0
		CHANNELS 3 Zrotation Yrotation Xrotation
		JOINT Chest
		{
			OFFSET 0.01292 1.96517 -0.16495
			CHANNELS 3 Zrotation Yrotation Xrotation
			JOINT Chest2
			{
				OFFSET 0.02122 1.88666 0.19706
				CHANNELS 3 Zrotation Yrotation Xrotation
				JOINT lowerneck
				{
					OFFSET 0 0 0
					CHANNELS 3 Zrotation Yrotation Xrotation
					JOINT Neck
					{
						OFFSET -0.01683 1.81591 0.07903
						CHANNELS 3 Zrotation Yrotation Xrotation
						JOINT Head
						{
							OFFSET 0.00815 1.74013 -0.47700
							CHANNELS 3 Zrotation Yrotation Xrotation
							End Site
							{
								OFFSET -0.00204 1.83225 -0.16933
							}
						}
					}
				}
				JOINT LeftCollar
				{
					OFFSET 0 0 0
					CHANNELS 3 Zrotation Yrotation Xrotation
					JOINT LeftShoulder
					{
						OFFSET 3.38482 1.41533 0.19802
CHANNELS 3 Zrotation Xrotation Yrotation
						JOINT LeftElbow
						{
OFFSET 0 -4.327120 0.000000
CHANNELS 3 Zrotation Xrotation Yrotation
							JOINT LeftWrist
							{
OFFSET 0 -3.285870 -0.000000
CHANNELS 3 Zrotation Xrotation Yrotation
								JOINT lhand
								{
									OFFSET 0 0 0
CHANNELS 3 Zrotation Xrotation Yrotation
									JOINT LFingers
									{
OFFSET 0 -0.433160 -0.000000
CHANNELS 3 Zrotation Xrotation Yrotation
										End Site
										{
OFFSET 0 -0.349220 -0.000000
										}
									}
								}
								JOINT LThumb
								{
OFFSET 0 0.000000 0.000000
CHANNELS 3 Zrotation Xrotation Yrotation
									End Site
									{
OFFSET 0 -0.354560 0.354560
									}
								}
							}
						}
					}
				}
				JOINT RightCollar
				{
					OFFSET 0 0 0
					CHANNELS 3 Zrotation Yrotation Xrotation
					JOINT RightShoulder
					{
						OFFSET -3.09725 1.62858 -0.14144
CHANNELS 3 Zrotation Xrotation Yrotation
						JOINT RightElbow
						{
OFFSET 0 -4.291040 0.000000
CHANNELS 3 Zrotation Xrotation Yrotation
							JOINT RightWrist
							{
OFFSET 0 -3.227200 -0.000000
CHANNELS 3 Zrotation Xrotation Yrotation
								JOINT rhand
								{
									OFFSET 0 0 0
CHANNELS 3 Zrotation Xrotation Yrotation
									JOINT RFingers
									{
OFFSET 0 -0.543620 -0.000000
CHANNELS 3 Zrotation Xrotation Yrotation
										End Site
										{
OFFSET 0 -0.438280 -0.000000
										}
									}
								}
								JOINT RThumb
								{
OFFSET 0 0.000000 0.000000
CHANNELS 3 Zrotation Xrotation Yrotation
									End Site
									{
OFFSET 0 -0.444970 0.444970
									}
								}
							}
						}
					}
				}
			}
		}
	}
}
MOTION
Frames: 8
Frame Time: 0.008333333333333333
29.909200 15.386400 2.617100 -72.024100 -80.640600 83.104900 0.000000 0.000000 0.000000 -4.451900 -25.602900 -38.036300 0.610300 5.000000 13.908700 0.583400 13.864100 -25.293000 11.473000 -18.158900 -64.308300 0.000000 0.000000 0.000000 45.555700 12.783000 13.997700 -0.049100 1.430300 -3.933800 -2.167700 -10.037100 -32.873800 -0.006400 0.515600 -1.416700 6.172900 1.825500 7.494900 4.661000 3.603600 -8.874900 1.054200 1.254400 -13.962200 -3.592800 -1.894400 -19.820500 -4.170200 -0.699500 32.215900 -1.276400 -1.609700 14.433700 0.000000 0.000000 0.000000 0.152200 22.179100 -12.870700 19.935700 -30.564800 5.498600 28.475200 22.303900 -29.566500 0.000000 0.000000 0.000000 -7.125000 0.000000 0.000000 -3.085300 62.791500 1.333900 0.000000 0.000000 0.000000 -25.818700 4.887900 48.330800 -21.452100 -32.352300 -6.290100 -23.493300 -1.098700 25.852300 0.000000 0.000000 0.000000 7.125000 0.000000 -0.000000 7.087800 57.688600 -2.209100
29.789746 15.370010 2.633405 -73.031712 -80.540260 84.114598 0.000000 0.000000 0.000000 -3.459784 -26.958955 -37.724638 0.520816 4.600216 12.776057 0.619202 14.843274 -26.634709 11.403482 -18.126716 -64.084717 0.000000 0.000000 0.000000 45.754932 12.632043 14.565086 -0.052676 1.480363 -4.071730 -1.935773 -10.518790 -31.799863 -0.076344 1.429045 -3.937028 6.373579 1.854874 7.470124 4.668748 3.667584 -8.901081 0.941642 1.262361 -13.967053 -3.563894 -1.836589 -19.865966 -4.233077 -0.603460 32.388781 -1.297175 -1.582029 14.523056 0.000000 0.000000 0.000000 0.010439 22.365092 -12.293225 19.712713 -30.293368 5.386255 28.531819 22.452941 -29.441001 0.000000 0.000000 0.000000 -7.125000 0.000000 0.000000 -2.954522 62.674174 1.269660 0.000000 0.000000 0.000000 -25.750586 4.737412 48.642590 -21.478792 -32.382951 -6.304404 -23.694661 -1.283373 25.495513 0.000000 0.000000 0.000000 7.125000 0.000000 0.000000 6.718114 57.362294 -2.044223
29.670292 15.353620 2.649709 -74.039324 -80.439921 85.124296 0.000000 0.000000 0.000000 -2.467668 -28.315010 -37.412976 0.431332 4.200432 11.643415 0.655004 15.822449 -27.976417 11.333963 -18.094533 -63.861135 0.000000 0.000000 0.000000 45.954164 12.481087 15.132471 -0.056252 1.530427 -4.209660 -1.703847 -11.000481 -30.725925 -0.146288 2.342490 -6.457356 6.574259 1.884248 7.445347 4.676496 3.731568 -8.927262 0.829085 1.270322 -13.971906 -3.534989 -1.778777 -19.911432 -4.295955 -0.507420 32.561661 -1.317949 -1.554358 14.612413 0.000000 0.000000 0.000000 -0.131323 22.551085 -11.715750 19.489727 -30.021935 5.273911 28.588439 22.601982 -29.315502 0.000000 0.000000 0.000000 -7.125000 0.000000 0.000000 -2.823744 62.556849 1.205421 0.000000 0.000000 0.000000 -25.682473 4.586923 48.954379 -21.505484 -32.413602 -6.318708 -23.896021 -1.468046 25.138726 0.000000 0.000000 0.000000 7.125000 0.000000 0.000000 6.348428 57.035987 -1.879345
29.548288 15.336399 2.666374 -75.052617 -80.356125 86.156940 0.000000 0.000000 0.000000 -1.541786 -29.621016 -37.125979 0.364794 3.866467 10.702905 0.700201 16.695455 -29.250451 11.313275 -18.084990 -63.794684 0.000000 0.000000 0.000000 46.087412 12.269023 15.607379 -0.057639 1.549618 -4.262511 -1.544805 -11.209088 -29.864130 -0.222800 2.989974 -8.254462 6.737193 1.914647 7.394022 4.678507 3.788763 -8.969572 0.733598 1.278033 -13.980501 -3.494139 -1.713262 -19.952851 -4.347276 -0.408276 32.730801 -1.335371 -1.522169 14.699802 0.000000 0.000000 0.000000 -0.292843 22.745225 -11.053779 19.244847 -29.720351 5.152310 28.570926 22.879333 -29.410652 0.000000 0.000000 0.000000 -7.125000 0.000000 0.000000 -2.892471 62.652441 1.241973 0.000000 0.000000 0.000000 -25.574675 4.458328 49.262649 -21.497452 -32.404374 -6.314416 -24.475829 -1.312598 24.872199 0.000000 0.000000 0.000000 7.125000 0.000000 0.000000 5.612156 56.884161 -1.639727
29.424918 15.318732 2.683232 -76.068956 -80.281201 87.201886 0.000000 0.000000 0.000000 -0.651414 -30.900188 -36.852205 0.310558 3.567789 9.865407 0.750435 17.511541 -30.488202 11.318767 -18.087587 -63.812479 0.000000 0.000000 0.000000 46.185282 12.024198 16.032706 -0.057851 1.552258 -4.269748 -1.424840 -11.271285 -29.116073 -0.302834 3.494866 -9.663816 6.879891 1.945596 7.328463 4.677443 3.842317 -9.020530 0.647264 1.285611 -13.991101 -3.446885 -1.643616 -19.992102 -4.392401 -0.307468 32.897934 -1.350994 -1.487559 14.786136 0.000000 0.000000 0.000000 -0.464957 22.943733 -10.346505 18.988229 -29.402602 5.025746 28.513668 23.225478 -29.624103 0.000000 0.000000 0.000000 -7.125000 0.000000 0.000000 -3.068161 62.862188 1.332564 0.000000 0.000000 0.000000 -25.445599 4.341471 49.569033 -21.470802 -32.373766 -6.300155 -25.258538 -0.974798 24.654066 0.000000 0.000000 0.000000 7.125000 0.000000 0.000000 4.679341 56.825881 -1.360035
29.300043 15.300924 2.699936 -77.112829 -80.201031 88.281746 0.000000 0.000000 0.000000 -0.084430 -31.770463 -36.646780 0.274268 3.368774 9.307255 0.734081 18.242939 -31.199884 11.362270 -18.107525 -63.952162 0.000000 0.000000 0.000000 46.269668 11.760759 16.416575 -0.056496 1.532748 -4.215951 -1.443347 -10.901072 -28.963050 -0.313631 3.427412 -9.484052 7.009953 1.978654 7.246938 4.680441 3.895434 -9.078094 0.573271 1.294281 -14.000415 -3.395826 -1.558582 -20.027444 -4.429723 -0.187763 33.060684 -1.360319 -1.443218 14.870078 0.000000 0.000000 0.000000 -0.621415 23.165779 -9.682037 18.736381 -29.089133 4.902345 28.529644 23.607898 -29.874267 0.000000 0.000000 0.000000 -7.125000 0.000000 0.000000 -3.173780 63.130232 1.397060 0.000000 0.000000 0.000000 -25.316460 4.244976 49.873616 -21.454205 -32.354714 -6.291267 -25.774498 -0.767023 24.511904 0.000000 0.000000 0.000000 7.125000 0.000000 0.000000 4.064965 56.789211 -1.175881
29.171691 15.282789 2.716283 -78.220355 -80.108737 89.442316 0.000000 0.000000 0.000000 -0.265016 -31.695495 -36.599356 0.279462 3.400149 9.394866 0.563797 18.778566 -30.695461 11.493644 -18.167550 -64.373615 0.000000 0.000000 0.000000 46.322882 11.454290 16.704610 -0.051515 1.462038 -4.021061 -1.781956 -9.531267 -30.185560 -0.164377 2.036875 -5.630742 7.110804 2.016584 7.128506 4.692829 3.947541 -9.150933 0.527805 1.305477 -14.006758 -3.335971 -1.437979 -20.053753 -4.449008 -0.024376 33.213301 -1.355083 -1.376382 14.948494 0.000000 0.000000 0.000000 -0.741678 23.442235 -9.116525 18.495557 -28.785559 4.786254 28.714913 24.074178 -30.209300 0.000000 0.000000 0.000000 -7.125000 0.000000 0.000000 -3.117416 63.533038 1.401232 0.000000 0.000000 0.000000 -25.187172 4.195551 50.174039 -21.460846 -32.362377 -6.294800 -25.673818 -0.859828 24.545365 0.000000 0.000000 0.000000 7.125000 0.000000 0.000000 4.186718 56.802493 -1.212577
29.043340 15.264653 2.732631 -79.327881 -80.016443 90.602885 0.000000 0.000000 0.000000 -0.445602 -31.620528 -36.551932 0.284656 3.431524 9.482477 0.393513 19.314194 -30.191038 11.625018 -18.227575 -64.795067 0.000000 0.000000 0.000000 46.376096 11.147822 16.992645 -0.046534 1.391328 -3.826171 -2.120565 -8.161461 -31.408070 -0.015124 0.646337 -1.777432 7.211654 2.054515 7.010073 4.705217 3.999648 -9.223772 0.482340 1.316673 -14.013102 -3.276117 -1.317375 -20.080062 -4.468292 0.139011 33.365918 -1.349846 -1.309545 15.026910 0.000000 0.000000 0.000000 -0.861941 23.718690 -8.551012 18.254733 -28.481986 4.670163 28.900181 24.540457 -30.544334 0.000000 0.000000 0.000000 -7.125000 0.000000 0.000000 -3.061052 63.935844 1.405404 0.000000 0.000000 0.000000 -25.057884 4.146126 50.474462 -21.467487 -32.370039 -6.298334 -25.573138 -0.952633 24.578825 0.000000 0.000000 0.000000 7.125000 0.000000 0.000000 4.308470 56.815775 -1.249273
